<mxfile host="app.diagrams.net" agent="Mozilla/5.0 (Windows NT 10.0; Win64; x64) AppleWebKit/537.36 (KHTML, like Gecko) Chrome/132.0.0.0 Safari/537.36" version="25.0.3">
  <diagram name="Page-1" id="ADA3VmPY_CRO0S4wmTpr">
    <mxGraphModel dx="2382" dy="1888" grid="1" gridSize="10" guides="1" tooltips="1" connect="1" arrows="1" fold="1" page="1" pageScale="1" pageWidth="850" pageHeight="1100" math="0" shadow="0">
      <root>
        <mxCell id="0" />
        <mxCell id="1" parent="0" />
        <mxCell id="xJ0qbIGbx3bulTJz7SwR-1" value="user" style="whiteSpace=wrap;html=1;align=center;" parent="1" vertex="1">
          <mxGeometry x="380" y="80" width="100" height="40" as="geometry" />
        </mxCell>
        <mxCell id="xJ0qbIGbx3bulTJz7SwR-2" value="uname" style="ellipse;whiteSpace=wrap;html=1;align=center;" parent="1" vertex="1">
          <mxGeometry x="210" y="-40" width="100" height="40" as="geometry" />
        </mxCell>
        <mxCell id="xJ0qbIGbx3bulTJz7SwR-3" value="uid" style="ellipse;whiteSpace=wrap;html=1;align=center;fontStyle=4;" parent="1" vertex="1">
          <mxGeometry x="260" y="-80" width="100" height="40" as="geometry" />
        </mxCell>
        <mxCell id="xJ0qbIGbx3bulTJz7SwR-4" value="upwd" style="ellipse;whiteSpace=wrap;html=1;align=center;" parent="1" vertex="1">
          <mxGeometry x="170" width="100" height="40" as="geometry" />
        </mxCell>
        <mxCell id="xJ0qbIGbx3bulTJz7SwR-5" value="mob_no" style="ellipse;whiteSpace=wrap;html=1;align=center;" parent="1" vertex="1">
          <mxGeometry x="310" y="-120" width="100" height="40" as="geometry" />
        </mxCell>
        <mxCell id="xJ0qbIGbx3bulTJz7SwR-6" value="pan_card" style="ellipse;whiteSpace=wrap;html=1;align=center;" parent="1" vertex="1">
          <mxGeometry x="210" y="80" width="100" height="40" as="geometry" />
        </mxCell>
        <mxCell id="xJ0qbIGbx3bulTJz7SwR-7" value="bank_acc_no" style="ellipse;whiteSpace=wrap;html=1;align=center;" parent="1" vertex="1">
          <mxGeometry x="420" y="-120" width="100" height="40" as="geometry" />
        </mxCell>
        <mxCell id="xJ0qbIGbx3bulTJz7SwR-8" value="user_role" style="ellipse;whiteSpace=wrap;html=1;align=center;" parent="1" vertex="1">
          <mxGeometry x="550" width="100" height="40" as="geometry" />
        </mxCell>
        <mxCell id="xJ0qbIGbx3bulTJz7SwR-9" value="address" style="ellipse;whiteSpace=wrap;html=1;align=center;" parent="1" vertex="1">
          <mxGeometry x="140" y="40" width="100" height="40" as="geometry" />
        </mxCell>
        <mxCell id="xJ0qbIGbx3bulTJz7SwR-10" value="access_status" style="ellipse;whiteSpace=wrap;html=1;align=center;" parent="1" vertex="1">
          <mxGeometry x="510" y="-40" width="100" height="40" as="geometry" />
        </mxCell>
        <mxCell id="xJ0qbIGbx3bulTJz7SwR-11" value="uemail" style="ellipse;whiteSpace=wrap;html=1;align=center;" parent="1" vertex="1">
          <mxGeometry x="470" y="-80" width="100" height="40" as="geometry" />
        </mxCell>
        <mxCell id="xJ0qbIGbx3bulTJz7SwR-12" value="" style="endArrow=none;html=1;rounded=0;entryX=0;entryY=0.5;entryDx=0;entryDy=0;exitX=1;exitY=0;exitDx=0;exitDy=0;" parent="1" source="xJ0qbIGbx3bulTJz7SwR-1" target="xJ0qbIGbx3bulTJz7SwR-10" edge="1">
          <mxGeometry relative="1" as="geometry">
            <mxPoint x="340" y="150" as="sourcePoint" />
            <mxPoint x="500" y="150" as="targetPoint" />
          </mxGeometry>
        </mxCell>
        <mxCell id="xJ0qbIGbx3bulTJz7SwR-13" value="" style="endArrow=none;html=1;rounded=0;exitX=0;exitY=1;exitDx=0;exitDy=0;entryX=0.75;entryY=0;entryDx=0;entryDy=0;" parent="1" source="xJ0qbIGbx3bulTJz7SwR-11" target="xJ0qbIGbx3bulTJz7SwR-1" edge="1">
          <mxGeometry relative="1" as="geometry">
            <mxPoint x="340" y="150" as="sourcePoint" />
            <mxPoint x="500" y="150" as="targetPoint" />
          </mxGeometry>
        </mxCell>
        <mxCell id="xJ0qbIGbx3bulTJz7SwR-14" value="" style="endArrow=none;html=1;rounded=0;exitX=0.318;exitY=0.981;exitDx=0;exitDy=0;entryX=0.5;entryY=0;entryDx=0;entryDy=0;exitPerimeter=0;" parent="1" source="xJ0qbIGbx3bulTJz7SwR-7" target="xJ0qbIGbx3bulTJz7SwR-1" edge="1">
          <mxGeometry relative="1" as="geometry">
            <mxPoint x="340" y="150" as="sourcePoint" />
            <mxPoint x="500" y="150" as="targetPoint" />
          </mxGeometry>
        </mxCell>
        <mxCell id="xJ0qbIGbx3bulTJz7SwR-15" value="" style="endArrow=none;html=1;rounded=0;exitX=0.655;exitY=0.981;exitDx=0;exitDy=0;exitPerimeter=0;" parent="1" source="xJ0qbIGbx3bulTJz7SwR-5" edge="1">
          <mxGeometry relative="1" as="geometry">
            <mxPoint x="340" y="150" as="sourcePoint" />
            <mxPoint x="410" y="80" as="targetPoint" />
          </mxGeometry>
        </mxCell>
        <mxCell id="xJ0qbIGbx3bulTJz7SwR-16" value="" style="endArrow=none;html=1;rounded=0;exitX=1;exitY=1;exitDx=0;exitDy=0;entryX=0.25;entryY=0;entryDx=0;entryDy=0;" parent="1" source="xJ0qbIGbx3bulTJz7SwR-3" target="xJ0qbIGbx3bulTJz7SwR-1" edge="1">
          <mxGeometry relative="1" as="geometry">
            <mxPoint x="340" y="150" as="sourcePoint" />
            <mxPoint x="500" y="150" as="targetPoint" />
          </mxGeometry>
        </mxCell>
        <mxCell id="xJ0qbIGbx3bulTJz7SwR-17" value="" style="endArrow=none;html=1;rounded=0;exitX=1;exitY=1;exitDx=0;exitDy=0;entryX=0.103;entryY=0.012;entryDx=0;entryDy=0;entryPerimeter=0;" parent="1" source="xJ0qbIGbx3bulTJz7SwR-2" target="xJ0qbIGbx3bulTJz7SwR-1" edge="1">
          <mxGeometry relative="1" as="geometry">
            <mxPoint x="340" y="150" as="sourcePoint" />
            <mxPoint x="500" y="150" as="targetPoint" />
          </mxGeometry>
        </mxCell>
        <mxCell id="xJ0qbIGbx3bulTJz7SwR-18" value="" style="endArrow=none;html=1;rounded=0;exitX=1;exitY=0.5;exitDx=0;exitDy=0;entryX=0;entryY=0;entryDx=0;entryDy=0;" parent="1" source="xJ0qbIGbx3bulTJz7SwR-4" target="xJ0qbIGbx3bulTJz7SwR-1" edge="1">
          <mxGeometry relative="1" as="geometry">
            <mxPoint x="340" y="150" as="sourcePoint" />
            <mxPoint x="500" y="150" as="targetPoint" />
          </mxGeometry>
        </mxCell>
        <mxCell id="xJ0qbIGbx3bulTJz7SwR-19" value="" style="endArrow=none;html=1;rounded=0;exitX=1;exitY=0.5;exitDx=0;exitDy=0;entryX=0;entryY=0.25;entryDx=0;entryDy=0;" parent="1" source="xJ0qbIGbx3bulTJz7SwR-9" target="xJ0qbIGbx3bulTJz7SwR-1" edge="1">
          <mxGeometry relative="1" as="geometry">
            <mxPoint x="340" y="150" as="sourcePoint" />
            <mxPoint x="500" y="150" as="targetPoint" />
          </mxGeometry>
        </mxCell>
        <mxCell id="xJ0qbIGbx3bulTJz7SwR-20" value="" style="endArrow=none;html=1;rounded=0;exitX=1;exitY=0.5;exitDx=0;exitDy=0;entryX=0;entryY=0.5;entryDx=0;entryDy=0;" parent="1" source="xJ0qbIGbx3bulTJz7SwR-6" target="xJ0qbIGbx3bulTJz7SwR-1" edge="1">
          <mxGeometry relative="1" as="geometry">
            <mxPoint x="340" y="150" as="sourcePoint" />
            <mxPoint x="500" y="150" as="targetPoint" />
          </mxGeometry>
        </mxCell>
        <mxCell id="xJ0qbIGbx3bulTJz7SwR-21" value="" style="endArrow=none;html=1;rounded=0;entryX=0;entryY=0.5;entryDx=0;entryDy=0;exitX=1;exitY=0.25;exitDx=0;exitDy=0;" parent="1" source="xJ0qbIGbx3bulTJz7SwR-1" target="xJ0qbIGbx3bulTJz7SwR-8" edge="1">
          <mxGeometry relative="1" as="geometry">
            <mxPoint x="340" y="150" as="sourcePoint" />
            <mxPoint x="500" y="150" as="targetPoint" />
          </mxGeometry>
        </mxCell>
        <mxCell id="xJ0qbIGbx3bulTJz7SwR-22" value="payment_transaction" style="whiteSpace=wrap;html=1;align=center;" parent="1" vertex="1">
          <mxGeometry x="755" y="80" width="130" height="40" as="geometry" />
        </mxCell>
        <mxCell id="xJ0qbIGbx3bulTJz7SwR-23" value="uid" style="ellipse;whiteSpace=wrap;html=1;align=center;" parent="1" vertex="1">
          <mxGeometry x="690" y="-20" width="102" height="40" as="geometry" />
        </mxCell>
        <mxCell id="xJ0qbIGbx3bulTJz7SwR-25" value="transaction_id" style="ellipse;whiteSpace=wrap;html=1;align=center;fontStyle=4;" parent="1" vertex="1">
          <mxGeometry x="650" y="30" width="100" height="40" as="geometry" />
        </mxCell>
        <mxCell id="xJ0qbIGbx3bulTJz7SwR-26" value="transaction_date" style="ellipse;whiteSpace=wrap;html=1;align=center;" parent="1" vertex="1">
          <mxGeometry x="770" y="-60" width="100" height="40" as="geometry" />
        </mxCell>
        <mxCell id="xJ0qbIGbx3bulTJz7SwR-27" value="amt" style="ellipse;whiteSpace=wrap;html=1;align=center;" parent="1" vertex="1">
          <mxGeometry x="870" y="-20" width="100" height="40" as="geometry" />
        </mxCell>
        <mxCell id="xJ0qbIGbx3bulTJz7SwR-28" value="utr_no" style="ellipse;whiteSpace=wrap;html=1;align=center;" parent="1" vertex="1">
          <mxGeometry x="900" y="40" width="100" height="40" as="geometry" />
        </mxCell>
        <mxCell id="xJ0qbIGbx3bulTJz7SwR-30" value="" style="endArrow=none;html=1;rounded=0;entryX=0;entryY=0.5;entryDx=0;entryDy=0;exitX=1;exitY=0;exitDx=0;exitDy=0;" parent="1" source="xJ0qbIGbx3bulTJz7SwR-22" target="xJ0qbIGbx3bulTJz7SwR-28" edge="1">
          <mxGeometry relative="1" as="geometry">
            <mxPoint x="340" y="150" as="sourcePoint" />
            <mxPoint x="500" y="150" as="targetPoint" />
          </mxGeometry>
        </mxCell>
        <mxCell id="xJ0qbIGbx3bulTJz7SwR-31" value="" style="endArrow=none;html=1;rounded=0;exitX=0;exitY=1;exitDx=0;exitDy=0;entryX=0.75;entryY=0;entryDx=0;entryDy=0;" parent="1" source="xJ0qbIGbx3bulTJz7SwR-27" target="xJ0qbIGbx3bulTJz7SwR-22" edge="1">
          <mxGeometry relative="1" as="geometry">
            <mxPoint x="340" y="150" as="sourcePoint" />
            <mxPoint x="500" y="150" as="targetPoint" />
          </mxGeometry>
        </mxCell>
        <mxCell id="xJ0qbIGbx3bulTJz7SwR-32" value="" style="endArrow=none;html=1;rounded=0;entryX=0.5;entryY=1;entryDx=0;entryDy=0;exitX=0.5;exitY=0;exitDx=0;exitDy=0;" parent="1" source="xJ0qbIGbx3bulTJz7SwR-22" target="xJ0qbIGbx3bulTJz7SwR-26" edge="1">
          <mxGeometry relative="1" as="geometry">
            <mxPoint x="340" y="150" as="sourcePoint" />
            <mxPoint x="500" y="150" as="targetPoint" />
          </mxGeometry>
        </mxCell>
        <mxCell id="xJ0qbIGbx3bulTJz7SwR-33" value="" style="endArrow=none;html=1;rounded=0;entryX=1;entryY=1;entryDx=0;entryDy=0;exitX=0.25;exitY=0;exitDx=0;exitDy=0;" parent="1" source="xJ0qbIGbx3bulTJz7SwR-22" target="xJ0qbIGbx3bulTJz7SwR-23" edge="1">
          <mxGeometry relative="1" as="geometry">
            <mxPoint x="340" y="150" as="sourcePoint" />
            <mxPoint x="500" y="150" as="targetPoint" />
          </mxGeometry>
        </mxCell>
        <mxCell id="xJ0qbIGbx3bulTJz7SwR-34" value="" style="endArrow=none;html=1;rounded=0;exitX=1;exitY=1;exitDx=0;exitDy=0;entryX=0;entryY=0;entryDx=0;entryDy=0;" parent="1" source="xJ0qbIGbx3bulTJz7SwR-25" target="xJ0qbIGbx3bulTJz7SwR-22" edge="1">
          <mxGeometry relative="1" as="geometry">
            <mxPoint x="340" y="150" as="sourcePoint" />
            <mxPoint x="500" y="150" as="targetPoint" />
          </mxGeometry>
        </mxCell>
        <mxCell id="xJ0qbIGbx3bulTJz7SwR-35" value="" style="edgeStyle=entityRelationEdgeStyle;fontSize=12;html=1;endArrow=ERoneToMany;startArrow=ERmandOne;rounded=0;entryX=0;entryY=0.25;entryDx=0;entryDy=0;exitX=1;exitY=0.5;exitDx=0;exitDy=0;" parent="1" source="xJ0qbIGbx3bulTJz7SwR-1" target="xJ0qbIGbx3bulTJz7SwR-22" edge="1">
          <mxGeometry width="100" height="100" relative="1" as="geometry">
            <mxPoint x="370" y="200" as="sourcePoint" />
            <mxPoint x="470" y="100" as="targetPoint" />
          </mxGeometry>
        </mxCell>
        <mxCell id="xJ0qbIGbx3bulTJz7SwR-36" value="" style="edgeStyle=entityRelationEdgeStyle;fontSize=12;html=1;endArrow=ERoneToMany;startArrow=ERmandOne;rounded=0;exitX=1;exitY=0.5;exitDx=0;exitDy=0;entryX=0;entryY=0.25;entryDx=0;entryDy=0;" parent="1" source="xJ0qbIGbx3bulTJz7SwR-37" target="xJ0qbIGbx3bulTJz7SwR-38" edge="1">
          <mxGeometry width="100" height="100" relative="1" as="geometry">
            <mxPoint x="370" y="200" as="sourcePoint" />
            <mxPoint x="540" y="200" as="targetPoint" />
          </mxGeometry>
        </mxCell>
        <mxCell id="xJ0qbIGbx3bulTJz7SwR-38" value="allowed_user" style="whiteSpace=wrap;html=1;align=center;" parent="1" vertex="1">
          <mxGeometry x="720" y="210" width="100" height="40" as="geometry" />
        </mxCell>
        <mxCell id="xJ0qbIGbx3bulTJz7SwR-39" value="" style="edgeStyle=entityRelationEdgeStyle;fontSize=12;html=1;endArrow=ERoneToMany;startArrow=ERmandOne;rounded=0;exitX=1;exitY=0.75;exitDx=0;exitDy=0;entryX=0;entryY=0.5;entryDx=0;entryDy=0;" parent="1" source="xJ0qbIGbx3bulTJz7SwR-1" target="xJ0qbIGbx3bulTJz7SwR-37" edge="1">
          <mxGeometry width="100" height="100" relative="1" as="geometry">
            <mxPoint x="480" y="110" as="sourcePoint" />
            <mxPoint x="540" y="310" as="targetPoint" />
          </mxGeometry>
        </mxCell>
        <mxCell id="xJ0qbIGbx3bulTJz7SwR-37" value="belongs to" style="shape=rhombus;perimeter=rhombusPerimeter;whiteSpace=wrap;html=1;align=center;" parent="1" vertex="1">
          <mxGeometry x="540" y="140" width="120" height="60" as="geometry" />
        </mxCell>
        <mxCell id="xJ0qbIGbx3bulTJz7SwR-40" value="bid_access" style="ellipse;whiteSpace=wrap;html=1;align=center;" parent="1" vertex="1">
          <mxGeometry x="860" y="240" width="100" height="40" as="geometry" />
        </mxCell>
        <mxCell id="xJ0qbIGbx3bulTJz7SwR-41" value="payment_no" style="ellipse;whiteSpace=wrap;html=1;align=center;fontStyle=4;" parent="1" vertex="1">
          <mxGeometry x="910" y="200" width="100" height="40" as="geometry" />
        </mxCell>
        <mxCell id="xJ0qbIGbx3bulTJz7SwR-42" value="uid" style="ellipse;whiteSpace=wrap;html=1;align=center;" parent="1" vertex="1">
          <mxGeometry x="840" y="160" width="100" height="40" as="geometry" />
        </mxCell>
        <mxCell id="xJ0qbIGbx3bulTJz7SwR-43" value="" style="endArrow=none;html=1;rounded=0;entryX=0;entryY=0.5;entryDx=0;entryDy=0;exitX=1;exitY=0.75;exitDx=0;exitDy=0;" parent="1" source="xJ0qbIGbx3bulTJz7SwR-38" target="xJ0qbIGbx3bulTJz7SwR-40" edge="1">
          <mxGeometry relative="1" as="geometry">
            <mxPoint x="640" y="280" as="sourcePoint" />
            <mxPoint x="800" y="280" as="targetPoint" />
          </mxGeometry>
        </mxCell>
        <mxCell id="xJ0qbIGbx3bulTJz7SwR-44" value="" style="endArrow=none;html=1;rounded=0;entryX=0;entryY=0.5;entryDx=0;entryDy=0;exitX=1;exitY=0.5;exitDx=0;exitDy=0;" parent="1" source="xJ0qbIGbx3bulTJz7SwR-38" target="xJ0qbIGbx3bulTJz7SwR-41" edge="1">
          <mxGeometry relative="1" as="geometry">
            <mxPoint x="640" y="280" as="sourcePoint" />
            <mxPoint x="800" y="280" as="targetPoint" />
          </mxGeometry>
        </mxCell>
        <mxCell id="xJ0qbIGbx3bulTJz7SwR-45" value="" style="endArrow=none;html=1;rounded=0;entryX=0;entryY=1;entryDx=0;entryDy=0;exitX=1;exitY=0.25;exitDx=0;exitDy=0;" parent="1" source="xJ0qbIGbx3bulTJz7SwR-38" target="xJ0qbIGbx3bulTJz7SwR-42" edge="1">
          <mxGeometry relative="1" as="geometry">
            <mxPoint x="640" y="280" as="sourcePoint" />
            <mxPoint x="800" y="280" as="targetPoint" />
          </mxGeometry>
        </mxCell>
        <mxCell id="xJ0qbIGbx3bulTJz7SwR-46" value="deposit_payment" style="whiteSpace=wrap;html=1;align=center;" parent="1" vertex="1">
          <mxGeometry x="200" y="200" width="100" height="40" as="geometry" />
        </mxCell>
        <mxCell id="xJ0qbIGbx3bulTJz7SwR-47" value="" style="edgeStyle=entityRelationEdgeStyle;fontSize=12;html=1;endArrow=ERoneToMany;startArrow=ERmandOne;rounded=0;exitX=1;exitY=0.75;exitDx=0;exitDy=0;" parent="1" source="xJ0qbIGbx3bulTJz7SwR-46" edge="1">
          <mxGeometry width="100" height="100" relative="1" as="geometry">
            <mxPoint x="670" y="330" as="sourcePoint" />
            <mxPoint x="720" y="230" as="targetPoint" />
          </mxGeometry>
        </mxCell>
        <mxCell id="xJ0qbIGbx3bulTJz7SwR-48" value="" style="edgeStyle=entityRelationEdgeStyle;fontSize=12;html=1;endArrow=ERoneToMany;startArrow=ERmandOne;rounded=0;exitX=0;exitY=0.75;exitDx=0;exitDy=0;entryX=1;entryY=0.25;entryDx=0;entryDy=0;" parent="1" source="xJ0qbIGbx3bulTJz7SwR-1" target="xJ0qbIGbx3bulTJz7SwR-46" edge="1">
          <mxGeometry width="100" height="100" relative="1" as="geometry">
            <mxPoint x="670" y="330" as="sourcePoint" />
            <mxPoint x="770" y="230" as="targetPoint" />
          </mxGeometry>
        </mxCell>
        <mxCell id="xJ0qbIGbx3bulTJz7SwR-49" value="action_status_track" style="whiteSpace=wrap;html=1;align=center;" parent="1" vertex="1">
          <mxGeometry x="720" y="420" width="130" height="40" as="geometry" />
        </mxCell>
        <mxCell id="xJ0qbIGbx3bulTJz7SwR-51" value="" style="edgeStyle=entityRelationEdgeStyle;fontSize=12;html=1;endArrow=ERoneToMany;startArrow=ERoneToMany;rounded=0;entryX=0;entryY=0.75;entryDx=0;entryDy=0;exitX=0.5;exitY=0;exitDx=0;exitDy=0;" parent="1" source="xJ0qbIGbx3bulTJz7SwR-50" target="xJ0qbIGbx3bulTJz7SwR-38" edge="1">
          <mxGeometry width="100" height="100" relative="1" as="geometry">
            <mxPoint x="660" y="460" as="sourcePoint" />
            <mxPoint x="770" y="230" as="targetPoint" />
          </mxGeometry>
        </mxCell>
        <mxCell id="xJ0qbIGbx3bulTJz7SwR-53" value="" style="edgeStyle=entityRelationEdgeStyle;fontSize=12;html=1;endArrow=ERoneToMany;startArrow=ERoneToMany;rounded=0;entryX=0.5;entryY=1;entryDx=0;entryDy=0;exitX=0;exitY=0.25;exitDx=0;exitDy=0;" parent="1" source="xJ0qbIGbx3bulTJz7SwR-49" target="xJ0qbIGbx3bulTJz7SwR-50" edge="1">
          <mxGeometry width="100" height="100" relative="1" as="geometry">
            <mxPoint x="550" y="460" as="sourcePoint" />
            <mxPoint x="720" y="240" as="targetPoint" />
          </mxGeometry>
        </mxCell>
        <mxCell id="xJ0qbIGbx3bulTJz7SwR-50" value="can participates" style="shape=rhombus;perimeter=rhombusPerimeter;whiteSpace=wrap;html=1;align=center;" parent="1" vertex="1">
          <mxGeometry x="600" y="310" width="120" height="60" as="geometry" />
        </mxCell>
        <mxCell id="xJ0qbIGbx3bulTJz7SwR-55" value="allowed_user_uid" style="ellipse;whiteSpace=wrap;html=1;align=center;" parent="1" vertex="1">
          <mxGeometry x="710" y="340" width="100" height="40" as="geometry" />
        </mxCell>
        <mxCell id="xJ0qbIGbx3bulTJz7SwR-56" value="price_offered" style="ellipse;whiteSpace=wrap;html=1;align=center;" parent="1" vertex="1">
          <mxGeometry x="780" y="310" width="100" height="40" as="geometry" />
        </mxCell>
        <mxCell id="xJ0qbIGbx3bulTJz7SwR-57" value="user_bid_left" style="ellipse;whiteSpace=wrap;html=1;align=center;" parent="1" vertex="1">
          <mxGeometry x="850" y="340" width="100" height="40" as="geometry" />
        </mxCell>
        <mxCell id="xJ0qbIGbx3bulTJz7SwR-58" value="highest_bidder" style="ellipse;whiteSpace=wrap;html=1;align=center;" parent="1" vertex="1">
          <mxGeometry x="910" y="380" width="100" height="40" as="geometry" />
        </mxCell>
        <mxCell id="xJ0qbIGbx3bulTJz7SwR-59" value="auction_end" style="ellipse;whiteSpace=wrap;html=1;align=center;" parent="1" vertex="1">
          <mxGeometry x="850" y="480" width="100" height="40" as="geometry" />
        </mxCell>
        <mxCell id="xJ0qbIGbx3bulTJz7SwR-60" value="vehicle_id" style="ellipse;whiteSpace=wrap;html=1;align=center;" parent="1" vertex="1">
          <mxGeometry x="760" y="500" width="100" height="40" as="geometry" />
        </mxCell>
        <mxCell id="xJ0qbIGbx3bulTJz7SwR-61" value="" style="endArrow=none;html=1;rounded=0;entryX=0;entryY=0;entryDx=0;entryDy=0;exitX=0.5;exitY=1;exitDx=0;exitDy=0;" parent="1" source="xJ0qbIGbx3bulTJz7SwR-49" target="xJ0qbIGbx3bulTJz7SwR-60" edge="1">
          <mxGeometry relative="1" as="geometry">
            <mxPoint x="730" y="440" as="sourcePoint" />
            <mxPoint x="890" y="440" as="targetPoint" />
          </mxGeometry>
        </mxCell>
        <mxCell id="xJ0qbIGbx3bulTJz7SwR-62" value="" style="endArrow=none;html=1;rounded=0;entryX=0;entryY=0;entryDx=0;entryDy=0;exitX=0.75;exitY=1;exitDx=0;exitDy=0;" parent="1" source="xJ0qbIGbx3bulTJz7SwR-49" target="xJ0qbIGbx3bulTJz7SwR-59" edge="1">
          <mxGeometry relative="1" as="geometry">
            <mxPoint x="730" y="440" as="sourcePoint" />
            <mxPoint x="890" y="440" as="targetPoint" />
          </mxGeometry>
        </mxCell>
        <mxCell id="xJ0qbIGbx3bulTJz7SwR-63" value="" style="endArrow=none;html=1;rounded=0;entryX=0;entryY=0.5;entryDx=0;entryDy=0;exitX=1;exitY=0;exitDx=0;exitDy=0;" parent="1" target="xJ0qbIGbx3bulTJz7SwR-58" edge="1" source="xJ0qbIGbx3bulTJz7SwR-49">
          <mxGeometry relative="1" as="geometry">
            <mxPoint x="850" y="450" as="sourcePoint" />
            <mxPoint x="910" y="440" as="targetPoint" />
          </mxGeometry>
        </mxCell>
        <mxCell id="xJ0qbIGbx3bulTJz7SwR-64" value="" style="endArrow=none;html=1;rounded=0;entryX=0;entryY=0.5;entryDx=0;entryDy=0;exitX=0.75;exitY=0;exitDx=0;exitDy=0;" parent="1" source="xJ0qbIGbx3bulTJz7SwR-49" target="xJ0qbIGbx3bulTJz7SwR-57" edge="1">
          <mxGeometry relative="1" as="geometry">
            <mxPoint x="730" y="440" as="sourcePoint" />
            <mxPoint x="890" y="440" as="targetPoint" />
          </mxGeometry>
        </mxCell>
        <mxCell id="xJ0qbIGbx3bulTJz7SwR-65" value="" style="endArrow=none;html=1;rounded=0;entryX=0.5;entryY=1;entryDx=0;entryDy=0;exitX=0.75;exitY=0;exitDx=0;exitDy=0;" parent="1" source="xJ0qbIGbx3bulTJz7SwR-49" target="xJ0qbIGbx3bulTJz7SwR-56" edge="1">
          <mxGeometry relative="1" as="geometry">
            <mxPoint x="730" y="440" as="sourcePoint" />
            <mxPoint x="890" y="440" as="targetPoint" />
          </mxGeometry>
        </mxCell>
        <mxCell id="xJ0qbIGbx3bulTJz7SwR-66" value="" style="endArrow=none;html=1;rounded=0;entryX=0.5;entryY=1;entryDx=0;entryDy=0;exitX=0.5;exitY=0;exitDx=0;exitDy=0;" parent="1" source="xJ0qbIGbx3bulTJz7SwR-49" target="xJ0qbIGbx3bulTJz7SwR-55" edge="1">
          <mxGeometry relative="1" as="geometry">
            <mxPoint x="730" y="440" as="sourcePoint" />
            <mxPoint x="890" y="440" as="targetPoint" />
          </mxGeometry>
        </mxCell>
        <mxCell id="xJ0qbIGbx3bulTJz7SwR-67" value="current_auction" style="whiteSpace=wrap;html=1;align=center;" parent="1" vertex="1">
          <mxGeometry x="470" y="630" width="100" height="40" as="geometry" />
        </mxCell>
        <mxCell id="xJ0qbIGbx3bulTJz7SwR-69" value="" style="edgeStyle=entityRelationEdgeStyle;fontSize=12;html=1;endArrow=ERoneToMany;startArrow=ERmandOne;rounded=0;entryX=0;entryY=0.75;entryDx=0;entryDy=0;exitX=1;exitY=0.25;exitDx=0;exitDy=0;" parent="1" source="xJ0qbIGbx3bulTJz7SwR-67" target="xJ0qbIGbx3bulTJz7SwR-49" edge="1">
          <mxGeometry width="100" height="100" relative="1" as="geometry">
            <mxPoint x="760" y="490" as="sourcePoint" />
            <mxPoint x="860" y="390" as="targetPoint" />
          </mxGeometry>
        </mxCell>
        <mxCell id="xJ0qbIGbx3bulTJz7SwR-70" value="all_vehicle_details" style="whiteSpace=wrap;html=1;align=center;" parent="1" vertex="1">
          <mxGeometry x="920" y="610" width="100" height="40" as="geometry" />
        </mxCell>
        <mxCell id="4qbptFO0dJgvD4-vZM9L-1" value="utr_no" style="ellipse;whiteSpace=wrap;html=1;align=center;" parent="1" vertex="1">
          <mxGeometry x="140" y="130" width="100" height="40" as="geometry" />
        </mxCell>
        <mxCell id="4qbptFO0dJgvD4-vZM9L-2" value="amt" style="ellipse;whiteSpace=wrap;html=1;align=center;" parent="1" vertex="1">
          <mxGeometry x="40" y="220" width="100" height="40" as="geometry" />
        </mxCell>
        <mxCell id="4qbptFO0dJgvD4-vZM9L-3" value="ud" style="ellipse;whiteSpace=wrap;html=1;align=center;" parent="1" vertex="1">
          <mxGeometry x="40" y="170" width="100" height="40" as="geometry" />
        </mxCell>
        <mxCell id="4qbptFO0dJgvD4-vZM9L-4" value="payment_no" style="ellipse;whiteSpace=wrap;html=1;align=center;" parent="1" vertex="1">
          <mxGeometry x="120" y="270" width="100" height="40" as="geometry" />
        </mxCell>
        <mxCell id="4qbptFO0dJgvD4-vZM9L-5" value="" style="endArrow=none;html=1;rounded=0;exitX=0.5;exitY=0;exitDx=0;exitDy=0;entryX=0.25;entryY=1;entryDx=0;entryDy=0;" parent="1" source="4qbptFO0dJgvD4-vZM9L-4" target="xJ0qbIGbx3bulTJz7SwR-46" edge="1">
          <mxGeometry relative="1" as="geometry">
            <mxPoint x="370" y="410" as="sourcePoint" />
            <mxPoint x="530" y="410" as="targetPoint" />
          </mxGeometry>
        </mxCell>
        <mxCell id="4qbptFO0dJgvD4-vZM9L-6" value="" style="endArrow=none;html=1;rounded=0;exitX=1;exitY=0.5;exitDx=0;exitDy=0;" parent="1" source="4qbptFO0dJgvD4-vZM9L-2" edge="1">
          <mxGeometry relative="1" as="geometry">
            <mxPoint x="370" y="410" as="sourcePoint" />
            <mxPoint x="200" y="230" as="targetPoint" />
          </mxGeometry>
        </mxCell>
        <mxCell id="4qbptFO0dJgvD4-vZM9L-7" value="" style="endArrow=none;html=1;rounded=0;exitX=1;exitY=0.5;exitDx=0;exitDy=0;entryX=0;entryY=0.25;entryDx=0;entryDy=0;" parent="1" source="4qbptFO0dJgvD4-vZM9L-3" target="xJ0qbIGbx3bulTJz7SwR-46" edge="1">
          <mxGeometry relative="1" as="geometry">
            <mxPoint x="370" y="410" as="sourcePoint" />
            <mxPoint x="530" y="410" as="targetPoint" />
          </mxGeometry>
        </mxCell>
        <mxCell id="4qbptFO0dJgvD4-vZM9L-8" value="" style="endArrow=none;html=1;rounded=0;exitX=0.5;exitY=1;exitDx=0;exitDy=0;entryX=0.25;entryY=0;entryDx=0;entryDy=0;" parent="1" source="4qbptFO0dJgvD4-vZM9L-1" target="xJ0qbIGbx3bulTJz7SwR-46" edge="1">
          <mxGeometry relative="1" as="geometry">
            <mxPoint x="370" y="410" as="sourcePoint" />
            <mxPoint x="530" y="410" as="targetPoint" />
          </mxGeometry>
        </mxCell>
        <mxCell id="NdrXdqOvJseDfAq-D-si-1" value="registration_year" style="ellipse;whiteSpace=wrap;html=1;align=center;" parent="1" vertex="1">
          <mxGeometry x="1080" y="730" width="100" height="40" as="geometry" />
        </mxCell>
        <mxCell id="NdrXdqOvJseDfAq-D-si-2" value="fueltype" style="ellipse;whiteSpace=wrap;html=1;align=center;" parent="1" vertex="1">
          <mxGeometry x="1140" y="500" width="100" height="40" as="geometry" />
        </mxCell>
        <mxCell id="NdrXdqOvJseDfAq-D-si-3" value="insurance" style="ellipse;whiteSpace=wrap;html=1;align=center;" parent="1" vertex="1">
          <mxGeometry x="840" y="530" width="100" height="40" as="geometry" />
        </mxCell>
        <mxCell id="NdrXdqOvJseDfAq-D-si-4" value="km_driven" style="ellipse;whiteSpace=wrap;html=1;align=center;" parent="1" vertex="1">
          <mxGeometry x="940" y="730" width="100" height="40" as="geometry" />
        </mxCell>
        <mxCell id="NdrXdqOvJseDfAq-D-si-7" value="vehicleid" style="ellipse;whiteSpace=wrap;html=1;align=center;fontStyle=4;" parent="1" vertex="1">
          <mxGeometry x="810" y="690" width="100" height="40" as="geometry" />
        </mxCell>
        <mxCell id="NdrXdqOvJseDfAq-D-si-12" value="modelname" style="ellipse;whiteSpace=wrap;html=1;align=center;" parent="1" vertex="1">
          <mxGeometry x="930" y="510" width="100" height="40" as="geometry" />
        </mxCell>
        <mxCell id="NdrXdqOvJseDfAq-D-si-15" value="RTO_passing" style="ellipse;whiteSpace=wrap;html=1;align=center;" parent="1" vertex="1">
          <mxGeometry x="1120" y="460" width="100" height="40" as="geometry" />
        </mxCell>
        <mxCell id="NdrXdqOvJseDfAq-D-si-23" value="" style="endArrow=none;html=1;rounded=0;exitX=0.5;exitY=0;exitDx=0;exitDy=0;entryX=0;entryY=1;entryDx=0;entryDy=0;" parent="1" source="NdrXdqOvJseDfAq-D-si-7" target="xJ0qbIGbx3bulTJz7SwR-70" edge="1">
          <mxGeometry relative="1" as="geometry">
            <mxPoint x="1305" y="520" as="sourcePoint" />
            <mxPoint x="1465" y="520" as="targetPoint" />
          </mxGeometry>
        </mxCell>
        <mxCell id="NdrXdqOvJseDfAq-D-si-25" value="" style="endArrow=none;html=1;rounded=0;exitX=0.5;exitY=0;exitDx=0;exitDy=0;entryX=0.5;entryY=1;entryDx=0;entryDy=0;" parent="1" source="NdrXdqOvJseDfAq-D-si-4" target="xJ0qbIGbx3bulTJz7SwR-70" edge="1">
          <mxGeometry relative="1" as="geometry">
            <mxPoint x="1305" y="520" as="sourcePoint" />
            <mxPoint x="1465" y="520" as="targetPoint" />
          </mxGeometry>
        </mxCell>
        <mxCell id="NdrXdqOvJseDfAq-D-si-26" value="" style="endArrow=none;html=1;rounded=0;exitX=0;exitY=0;exitDx=0;exitDy=0;entryX=0.75;entryY=1;entryDx=0;entryDy=0;" parent="1" source="NdrXdqOvJseDfAq-D-si-1" target="xJ0qbIGbx3bulTJz7SwR-70" edge="1">
          <mxGeometry relative="1" as="geometry">
            <mxPoint x="1305" y="520" as="sourcePoint" />
            <mxPoint x="1465" y="520" as="targetPoint" />
          </mxGeometry>
        </mxCell>
        <mxCell id="NdrXdqOvJseDfAq-D-si-14" value="year_of_&lt;div&gt;manufacture&lt;/div&gt;" style="ellipse;whiteSpace=wrap;html=1;align=center;" parent="1" vertex="1">
          <mxGeometry x="1010" y="470" width="100" height="40" as="geometry" />
        </mxCell>
        <mxCell id="NdrXdqOvJseDfAq-D-si-28" value="" style="endArrow=none;html=1;rounded=0;entryX=0;entryY=1;entryDx=0;entryDy=0;exitX=0.75;exitY=0;exitDx=0;exitDy=0;" parent="1" source="xJ0qbIGbx3bulTJz7SwR-70" target="NdrXdqOvJseDfAq-D-si-2" edge="1">
          <mxGeometry relative="1" as="geometry">
            <mxPoint x="1110" y="590" as="sourcePoint" />
            <mxPoint x="1465" y="530" as="targetPoint" />
          </mxGeometry>
        </mxCell>
        <mxCell id="NdrXdqOvJseDfAq-D-si-29" value="" style="endArrow=none;html=1;rounded=0;exitX=0.75;exitY=0;exitDx=0;exitDy=0;entryX=0;entryY=1;entryDx=0;entryDy=0;" parent="1" source="xJ0qbIGbx3bulTJz7SwR-70" edge="1" target="NdrXdqOvJseDfAq-D-si-15">
          <mxGeometry relative="1" as="geometry">
            <mxPoint x="1305" y="520" as="sourcePoint" />
            <mxPoint x="1405.0000000000005" y="570" as="targetPoint" />
          </mxGeometry>
        </mxCell>
        <mxCell id="NdrXdqOvJseDfAq-D-si-30" value="" style="endArrow=none;html=1;rounded=0;exitX=0.5;exitY=0;exitDx=0;exitDy=0;entryX=0.436;entryY=1.001;entryDx=0;entryDy=0;entryPerimeter=0;" parent="1" source="xJ0qbIGbx3bulTJz7SwR-70" target="NdrXdqOvJseDfAq-D-si-14" edge="1">
          <mxGeometry relative="1" as="geometry">
            <mxPoint x="1305" y="520" as="sourcePoint" />
            <mxPoint x="1465" y="520" as="targetPoint" />
          </mxGeometry>
        </mxCell>
        <mxCell id="NdrXdqOvJseDfAq-D-si-32" value="" style="endArrow=none;html=1;rounded=0;exitX=0.5;exitY=1;exitDx=0;exitDy=0;entryX=0.25;entryY=0;entryDx=0;entryDy=0;" parent="1" source="NdrXdqOvJseDfAq-D-si-12" target="xJ0qbIGbx3bulTJz7SwR-70" edge="1">
          <mxGeometry relative="1" as="geometry">
            <mxPoint x="1305" y="520" as="sourcePoint" />
            <mxPoint x="1465" y="520" as="targetPoint" />
          </mxGeometry>
        </mxCell>
        <mxCell id="NdrXdqOvJseDfAq-D-si-36" value="admin" style="whiteSpace=wrap;html=1;align=center;" parent="1" vertex="1">
          <mxGeometry x="10" y="660" width="100" height="40" as="geometry" />
        </mxCell>
        <mxCell id="NdrXdqOvJseDfAq-D-si-38" value="eventid" style="ellipse;whiteSpace=wrap;html=1;align=center;" parent="1" vertex="1">
          <mxGeometry x="410" y="710" width="100" height="40" as="geometry" />
        </mxCell>
        <mxCell id="NdrXdqOvJseDfAq-D-si-39" value="base_price" style="ellipse;whiteSpace=wrap;html=1;align=center;" parent="1" vertex="1">
          <mxGeometry x="480" y="760" width="100" height="40" as="geometry" />
        </mxCell>
        <mxCell id="NdrXdqOvJseDfAq-D-si-40" value="aid" style="ellipse;whiteSpace=wrap;html=1;align=center;" parent="1" vertex="1">
          <mxGeometry x="580" y="780" width="100" height="40" as="geometry" />
        </mxCell>
        <mxCell id="NdrXdqOvJseDfAq-D-si-41" value="auction_end" style="ellipse;whiteSpace=wrap;html=1;align=center;" parent="1" vertex="1">
          <mxGeometry x="650" y="740" width="100" height="40" as="geometry" />
        </mxCell>
        <mxCell id="NdrXdqOvJseDfAq-D-si-42" value="auction_start" style="ellipse;whiteSpace=wrap;html=1;align=center;" parent="1" vertex="1">
          <mxGeometry x="710" y="700" width="100" height="40" as="geometry" />
        </mxCell>
        <mxCell id="NdrXdqOvJseDfAq-D-si-43" value="vehicleid" style="ellipse;whiteSpace=wrap;html=1;align=center;fontStyle=4;" parent="1" vertex="1">
          <mxGeometry x="710" y="660" width="100" height="40" as="geometry" />
        </mxCell>
        <mxCell id="NdrXdqOvJseDfAq-D-si-45" style="edgeStyle=orthogonalEdgeStyle;rounded=0;orthogonalLoop=1;jettySize=auto;html=1;exitX=0.5;exitY=1;exitDx=0;exitDy=0;" parent="1" source="NdrXdqOvJseDfAq-D-si-39" target="NdrXdqOvJseDfAq-D-si-39" edge="1">
          <mxGeometry relative="1" as="geometry" />
        </mxCell>
        <mxCell id="NdrXdqOvJseDfAq-D-si-46" value="" style="endArrow=none;html=1;rounded=0;entryX=0;entryY=0;entryDx=0;entryDy=0;exitX=0.75;exitY=1;exitDx=0;exitDy=0;" parent="1" source="xJ0qbIGbx3bulTJz7SwR-67" target="NdrXdqOvJseDfAq-D-si-40" edge="1">
          <mxGeometry relative="1" as="geometry">
            <mxPoint x="550" y="740" as="sourcePoint" />
            <mxPoint x="710" y="740" as="targetPoint" />
          </mxGeometry>
        </mxCell>
        <mxCell id="NdrXdqOvJseDfAq-D-si-47" value="" style="endArrow=none;html=1;rounded=0;entryX=0;entryY=0;entryDx=0;entryDy=0;exitX=0.75;exitY=1;exitDx=0;exitDy=0;" parent="1" source="xJ0qbIGbx3bulTJz7SwR-67" target="NdrXdqOvJseDfAq-D-si-41" edge="1">
          <mxGeometry relative="1" as="geometry">
            <mxPoint x="550" y="740" as="sourcePoint" />
            <mxPoint x="710" y="740" as="targetPoint" />
          </mxGeometry>
        </mxCell>
        <mxCell id="NdrXdqOvJseDfAq-D-si-48" value="" style="endArrow=none;html=1;rounded=0;exitX=0;exitY=0.5;exitDx=0;exitDy=0;entryX=1;entryY=1;entryDx=0;entryDy=0;" parent="1" source="NdrXdqOvJseDfAq-D-si-42" target="xJ0qbIGbx3bulTJz7SwR-67" edge="1">
          <mxGeometry relative="1" as="geometry">
            <mxPoint x="550" y="740" as="sourcePoint" />
            <mxPoint x="710" y="740" as="targetPoint" />
          </mxGeometry>
        </mxCell>
        <mxCell id="NdrXdqOvJseDfAq-D-si-49" value="" style="endArrow=none;html=1;rounded=0;exitX=0;exitY=0.5;exitDx=0;exitDy=0;entryX=1;entryY=0.75;entryDx=0;entryDy=0;" parent="1" source="NdrXdqOvJseDfAq-D-si-43" target="xJ0qbIGbx3bulTJz7SwR-67" edge="1">
          <mxGeometry relative="1" as="geometry">
            <mxPoint x="550" y="740" as="sourcePoint" />
            <mxPoint x="710" y="740" as="targetPoint" />
          </mxGeometry>
        </mxCell>
        <mxCell id="NdrXdqOvJseDfAq-D-si-50" value="" style="endArrow=none;html=1;rounded=0;entryX=0.5;entryY=1;entryDx=0;entryDy=0;exitX=0.5;exitY=0;exitDx=0;exitDy=0;" parent="1" source="NdrXdqOvJseDfAq-D-si-39" target="xJ0qbIGbx3bulTJz7SwR-67" edge="1">
          <mxGeometry relative="1" as="geometry">
            <mxPoint x="550" y="740" as="sourcePoint" />
            <mxPoint x="710" y="740" as="targetPoint" />
          </mxGeometry>
        </mxCell>
        <mxCell id="NdrXdqOvJseDfAq-D-si-51" value="" style="endArrow=none;html=1;rounded=0;exitX=0.25;exitY=1;exitDx=0;exitDy=0;entryX=0.5;entryY=0;entryDx=0;entryDy=0;" parent="1" source="xJ0qbIGbx3bulTJz7SwR-67" target="NdrXdqOvJseDfAq-D-si-38" edge="1">
          <mxGeometry relative="1" as="geometry">
            <mxPoint x="550" y="740" as="sourcePoint" />
            <mxPoint x="710" y="740" as="targetPoint" />
          </mxGeometry>
        </mxCell>
        <mxCell id="NdrXdqOvJseDfAq-D-si-53" value="manages" style="shape=rhombus;perimeter=rhombusPerimeter;whiteSpace=wrap;html=1;align=center;" parent="1" vertex="1">
          <mxGeometry x="240" y="690" width="120" height="60" as="geometry" />
        </mxCell>
        <mxCell id="NdrXdqOvJseDfAq-D-si-54" value="" style="edgeStyle=entityRelationEdgeStyle;fontSize=12;html=1;endArrow=ERoneToMany;startArrow=ERmandOne;rounded=0;entryX=0;entryY=0.25;entryDx=0;entryDy=0;exitX=1;exitY=0.5;exitDx=0;exitDy=0;" parent="1" source="NdrXdqOvJseDfAq-D-si-59" target="xJ0qbIGbx3bulTJz7SwR-67" edge="1">
          <mxGeometry width="100" height="100" relative="1" as="geometry">
            <mxPoint x="390" y="560" as="sourcePoint" />
            <mxPoint x="680" y="690" as="targetPoint" />
          </mxGeometry>
        </mxCell>
        <mxCell id="NdrXdqOvJseDfAq-D-si-58" value="" style="edgeStyle=entityRelationEdgeStyle;fontSize=12;html=1;endArrow=ERoneToMany;startArrow=ERoneToMany;rounded=0;entryX=0;entryY=0.75;entryDx=0;entryDy=0;exitX=1;exitY=0.5;exitDx=0;exitDy=0;" parent="1" source="NdrXdqOvJseDfAq-D-si-53" target="xJ0qbIGbx3bulTJz7SwR-67" edge="1">
          <mxGeometry width="100" height="100" relative="1" as="geometry">
            <mxPoint x="580" y="790" as="sourcePoint" />
            <mxPoint x="680" y="690" as="targetPoint" />
          </mxGeometry>
        </mxCell>
        <mxCell id="NdrXdqOvJseDfAq-D-si-62" value="" style="edgeStyle=entityRelationEdgeStyle;fontSize=12;html=1;endArrow=ERoneToMany;startArrow=ERoneToMany;rounded=0;entryX=0;entryY=0.5;entryDx=0;entryDy=0;exitX=1;exitY=0.5;exitDx=0;exitDy=0;" parent="1" source="NdrXdqOvJseDfAq-D-si-36" target="NdrXdqOvJseDfAq-D-si-53" edge="1">
          <mxGeometry width="100" height="100" relative="1" as="geometry">
            <mxPoint x="110" y="800" as="sourcePoint" />
            <mxPoint x="195" y="730" as="targetPoint" />
          </mxGeometry>
        </mxCell>
        <mxCell id="NdrXdqOvJseDfAq-D-si-64" value="aid" style="ellipse;whiteSpace=wrap;html=1;align=center;fontStyle=4;" parent="1" vertex="1">
          <mxGeometry x="-130" y="620" width="100" height="40" as="geometry" />
        </mxCell>
        <mxCell id="NdrXdqOvJseDfAq-D-si-65" value="apwd" style="ellipse;whiteSpace=wrap;html=1;align=center;" parent="1" vertex="1">
          <mxGeometry x="-150" y="680" width="100" height="40" as="geometry" />
        </mxCell>
        <mxCell id="NdrXdqOvJseDfAq-D-si-66" value="aname" style="ellipse;whiteSpace=wrap;html=1;align=center;" parent="1" vertex="1">
          <mxGeometry x="-90" y="740" width="100" height="40" as="geometry" />
        </mxCell>
        <mxCell id="NdrXdqOvJseDfAq-D-si-67" value="aemail" style="ellipse;whiteSpace=wrap;html=1;align=center;" parent="1" vertex="1">
          <mxGeometry x="30" y="750" width="100" height="40" as="geometry" />
        </mxCell>
        <mxCell id="NdrXdqOvJseDfAq-D-si-68" value="" style="endArrow=none;html=1;rounded=0;exitX=0.75;exitY=1;exitDx=0;exitDy=0;entryX=0.5;entryY=0;entryDx=0;entryDy=0;" parent="1" source="NdrXdqOvJseDfAq-D-si-36" target="NdrXdqOvJseDfAq-D-si-67" edge="1">
          <mxGeometry relative="1" as="geometry">
            <mxPoint x="100" y="650" as="sourcePoint" />
            <mxPoint x="260" y="650" as="targetPoint" />
          </mxGeometry>
        </mxCell>
        <mxCell id="NdrXdqOvJseDfAq-D-si-69" value="" style="endArrow=none;html=1;rounded=0;exitX=0.5;exitY=1;exitDx=0;exitDy=0;entryX=0.5;entryY=0;entryDx=0;entryDy=0;" parent="1" source="NdrXdqOvJseDfAq-D-si-36" target="NdrXdqOvJseDfAq-D-si-66" edge="1">
          <mxGeometry relative="1" as="geometry">
            <mxPoint x="100" y="650" as="sourcePoint" />
            <mxPoint x="260" y="650" as="targetPoint" />
          </mxGeometry>
        </mxCell>
        <mxCell id="NdrXdqOvJseDfAq-D-si-70" value="" style="endArrow=none;html=1;rounded=0;exitX=0;exitY=0.5;exitDx=0;exitDy=0;entryX=1;entryY=0.5;entryDx=0;entryDy=0;" parent="1" source="NdrXdqOvJseDfAq-D-si-36" target="NdrXdqOvJseDfAq-D-si-65" edge="1">
          <mxGeometry relative="1" as="geometry">
            <mxPoint x="100" y="650" as="sourcePoint" />
            <mxPoint x="260" y="650" as="targetPoint" />
          </mxGeometry>
        </mxCell>
        <mxCell id="NdrXdqOvJseDfAq-D-si-71" value="" style="endArrow=none;html=1;rounded=0;exitX=0;exitY=0.25;exitDx=0;exitDy=0;entryX=1;entryY=0.5;entryDx=0;entryDy=0;" parent="1" source="NdrXdqOvJseDfAq-D-si-36" target="NdrXdqOvJseDfAq-D-si-64" edge="1">
          <mxGeometry relative="1" as="geometry">
            <mxPoint x="100" y="650" as="sourcePoint" />
            <mxPoint x="260" y="650" as="targetPoint" />
          </mxGeometry>
        </mxCell>
        <mxCell id="NdrXdqOvJseDfAq-D-si-72" value="" style="edgeStyle=entityRelationEdgeStyle;fontSize=12;html=1;endArrow=ERoneToMany;startArrow=ERoneToMany;rounded=0;entryX=0;entryY=0.5;entryDx=0;entryDy=0;exitX=1;exitY=0.25;exitDx=0;exitDy=0;" parent="1" source="NdrXdqOvJseDfAq-D-si-36" target="NdrXdqOvJseDfAq-D-si-59" edge="1">
          <mxGeometry width="100" height="100" relative="1" as="geometry">
            <mxPoint x="-40" y="670" as="sourcePoint" />
            <mxPoint x="125" y="500" as="targetPoint" />
          </mxGeometry>
        </mxCell>
        <mxCell id="NdrXdqOvJseDfAq-D-si-59" value="manages" style="shape=rhombus;perimeter=rhombusPerimeter;whiteSpace=wrap;html=1;align=center;" parent="1" vertex="1">
          <mxGeometry x="250" y="580" width="120" height="60" as="geometry" />
        </mxCell>
        <mxCell id="8tB_vOWRR-48YWNFsgm7-1" value="" style="edgeStyle=entityRelationEdgeStyle;fontSize=12;html=1;endArrow=ERoneToMany;startArrow=ERmandOne;rounded=0;exitX=0;exitY=0.5;exitDx=0;exitDy=0;entryX=1;entryY=0.5;entryDx=0;entryDy=0;" edge="1" parent="1" source="xJ0qbIGbx3bulTJz7SwR-49" target="8tB_vOWRR-48YWNFsgm7-2">
          <mxGeometry width="100" height="100" relative="1" as="geometry">
            <mxPoint x="600" y="440" as="sourcePoint" />
            <mxPoint x="650" y="400" as="targetPoint" />
          </mxGeometry>
        </mxCell>
        <mxCell id="8tB_vOWRR-48YWNFsgm7-2" value="winnertable" style="whiteSpace=wrap;html=1;align=center;" vertex="1" parent="1">
          <mxGeometry x="440" y="460" width="100" height="40" as="geometry" />
        </mxCell>
        <mxCell id="8tB_vOWRR-48YWNFsgm7-3" value="allowed_user_uid" style="ellipse;whiteSpace=wrap;html=1;align=center;" vertex="1" parent="1">
          <mxGeometry x="425" y="334.25" width="100" height="40" as="geometry" />
        </mxCell>
        <mxCell id="8tB_vOWRR-48YWNFsgm7-4" value="vehicleid" style="ellipse;whiteSpace=wrap;html=1;align=center;" vertex="1" parent="1">
          <mxGeometry x="350" y="370" width="100" height="40" as="geometry" />
        </mxCell>
        <mxCell id="8tB_vOWRR-48YWNFsgm7-5" value="auctionid" style="ellipse;whiteSpace=wrap;html=1;align=center;" vertex="1" parent="1">
          <mxGeometry x="310" y="420" width="100" height="40" as="geometry" />
        </mxCell>
        <mxCell id="8tB_vOWRR-48YWNFsgm7-6" value="amountPending" style="ellipse;whiteSpace=wrap;html=1;align=center;" vertex="1" parent="1">
          <mxGeometry x="350" y="530" width="100" height="40" as="geometry" />
        </mxCell>
        <mxCell id="8tB_vOWRR-48YWNFsgm7-7" value="auctionEndDate" style="ellipse;whiteSpace=wrap;html=1;align=center;" vertex="1" parent="1">
          <mxGeometry x="490" y="540" width="100" height="40" as="geometry" />
        </mxCell>
        <mxCell id="8tB_vOWRR-48YWNFsgm7-8" value="" style="endArrow=none;html=1;rounded=0;entryX=0.75;entryY=0;entryDx=0;entryDy=0;exitX=0.5;exitY=1;exitDx=0;exitDy=0;" edge="1" parent="1" source="8tB_vOWRR-48YWNFsgm7-3" target="8tB_vOWRR-48YWNFsgm7-2">
          <mxGeometry relative="1" as="geometry">
            <mxPoint x="480" y="410" as="sourcePoint" />
            <mxPoint x="640" y="410" as="targetPoint" />
          </mxGeometry>
        </mxCell>
        <mxCell id="8tB_vOWRR-48YWNFsgm7-9" value="" style="endArrow=none;html=1;rounded=0;exitX=0.5;exitY=0;exitDx=0;exitDy=0;entryX=0.75;entryY=1;entryDx=0;entryDy=0;" edge="1" parent="1" source="8tB_vOWRR-48YWNFsgm7-7" target="8tB_vOWRR-48YWNFsgm7-2">
          <mxGeometry relative="1" as="geometry">
            <mxPoint x="480" y="410" as="sourcePoint" />
            <mxPoint x="630" y="490" as="targetPoint" />
          </mxGeometry>
        </mxCell>
        <mxCell id="8tB_vOWRR-48YWNFsgm7-10" value="" style="endArrow=none;html=1;rounded=0;entryX=0.5;entryY=1;entryDx=0;entryDy=0;exitX=1;exitY=0;exitDx=0;exitDy=0;" edge="1" parent="1" source="8tB_vOWRR-48YWNFsgm7-6" target="8tB_vOWRR-48YWNFsgm7-2">
          <mxGeometry relative="1" as="geometry">
            <mxPoint x="410" y="420" as="sourcePoint" />
            <mxPoint x="570" y="420" as="targetPoint" />
          </mxGeometry>
        </mxCell>
        <mxCell id="8tB_vOWRR-48YWNFsgm7-11" value="" style="endArrow=none;html=1;rounded=0;entryX=0;entryY=0.5;entryDx=0;entryDy=0;exitX=1;exitY=0.5;exitDx=0;exitDy=0;" edge="1" parent="1" source="8tB_vOWRR-48YWNFsgm7-5" target="8tB_vOWRR-48YWNFsgm7-2">
          <mxGeometry relative="1" as="geometry">
            <mxPoint x="410" y="420" as="sourcePoint" />
            <mxPoint x="570" y="420" as="targetPoint" />
          </mxGeometry>
        </mxCell>
        <mxCell id="8tB_vOWRR-48YWNFsgm7-12" value="" style="endArrow=none;html=1;rounded=0;entryX=0.25;entryY=0;entryDx=0;entryDy=0;exitX=1;exitY=1;exitDx=0;exitDy=0;" edge="1" parent="1" source="8tB_vOWRR-48YWNFsgm7-4" target="8tB_vOWRR-48YWNFsgm7-2">
          <mxGeometry relative="1" as="geometry">
            <mxPoint x="410" y="420" as="sourcePoint" />
            <mxPoint x="410" y="470" as="targetPoint" />
          </mxGeometry>
        </mxCell>
        <mxCell id="8tB_vOWRR-48YWNFsgm7-13" value="" style="edgeStyle=entityRelationEdgeStyle;fontSize=12;html=1;endArrow=ERoneToMany;startArrow=ERmandOne;rounded=0;exitX=0;exitY=1;exitDx=0;exitDy=0;" edge="1" parent="1" source="8tB_vOWRR-48YWNFsgm7-2" target="8tB_vOWRR-48YWNFsgm7-14">
          <mxGeometry width="100" height="100" relative="1" as="geometry">
            <mxPoint x="-80" y="490" as="sourcePoint" />
            <mxPoint x="220" y="500" as="targetPoint" />
          </mxGeometry>
        </mxCell>
        <mxCell id="8tB_vOWRR-48YWNFsgm7-14" value="approvals" style="whiteSpace=wrap;html=1;align=center;" vertex="1" parent="1">
          <mxGeometry x="80" y="434.25" width="100" height="40" as="geometry" />
        </mxCell>
        <mxCell id="8tB_vOWRR-48YWNFsgm7-15" value="allowed_user_uid" style="ellipse;whiteSpace=wrap;html=1;align=center;" vertex="1" parent="1">
          <mxGeometry x="200" y="354.25" width="100" height="40" as="geometry" />
        </mxCell>
        <mxCell id="8tB_vOWRR-48YWNFsgm7-16" value="vehicledid" style="ellipse;whiteSpace=wrap;html=1;align=center;" vertex="1" parent="1">
          <mxGeometry x="100" y="334.25" width="100" height="40" as="geometry" />
        </mxCell>
        <mxCell id="8tB_vOWRR-48YWNFsgm7-17" value="auctionid" style="ellipse;whiteSpace=wrap;html=1;align=center;" vertex="1" parent="1">
          <mxGeometry y="344.25" width="100" height="40" as="geometry" />
        </mxCell>
        <mxCell id="8tB_vOWRR-48YWNFsgm7-18" value="vehicleName" style="ellipse;whiteSpace=wrap;html=1;align=center;" vertex="1" parent="1">
          <mxGeometry x="-70" y="394.25" width="100" height="40" as="geometry" />
        </mxCell>
        <mxCell id="8tB_vOWRR-48YWNFsgm7-19" value="bidAmt" style="ellipse;whiteSpace=wrap;html=1;align=center;" vertex="1" parent="1">
          <mxGeometry x="-60" y="444.25" width="100" height="40" as="geometry" />
        </mxCell>
        <mxCell id="8tB_vOWRR-48YWNFsgm7-20" value="winnerId" style="ellipse;whiteSpace=wrap;html=1;align=center;" vertex="1" parent="1">
          <mxGeometry x="-20" y="500" width="100" height="40" as="geometry" />
        </mxCell>
        <mxCell id="8tB_vOWRR-48YWNFsgm7-23" style="edgeStyle=orthogonalEdgeStyle;rounded=0;orthogonalLoop=1;jettySize=auto;html=1;exitX=0.5;exitY=1;exitDx=0;exitDy=0;" edge="1" parent="1" source="8tB_vOWRR-48YWNFsgm7-14" target="8tB_vOWRR-48YWNFsgm7-14">
          <mxGeometry relative="1" as="geometry" />
        </mxCell>
        <mxCell id="8tB_vOWRR-48YWNFsgm7-24" value="" style="endArrow=none;html=1;rounded=0;exitX=0;exitY=1;exitDx=0;exitDy=0;entryX=0.75;entryY=0;entryDx=0;entryDy=0;" edge="1" parent="1" source="8tB_vOWRR-48YWNFsgm7-15" target="8tB_vOWRR-48YWNFsgm7-14">
          <mxGeometry relative="1" as="geometry">
            <mxPoint x="194.91978735023213" y="398.50133638896796" as="sourcePoint" />
            <mxPoint x="460" y="494.25" as="targetPoint" />
          </mxGeometry>
        </mxCell>
        <mxCell id="8tB_vOWRR-48YWNFsgm7-25" value="" style="endArrow=none;html=1;rounded=0;exitX=0.5;exitY=1;exitDx=0;exitDy=0;entryX=0.5;entryY=0;entryDx=0;entryDy=0;" edge="1" parent="1" source="8tB_vOWRR-48YWNFsgm7-16" target="8tB_vOWRR-48YWNFsgm7-14">
          <mxGeometry relative="1" as="geometry">
            <mxPoint x="300" y="494.25" as="sourcePoint" />
            <mxPoint x="460" y="494.25" as="targetPoint" />
          </mxGeometry>
        </mxCell>
        <mxCell id="8tB_vOWRR-48YWNFsgm7-26" value="" style="endArrow=none;html=1;rounded=0;exitX=0.5;exitY=1;exitDx=0;exitDy=0;entryX=0.25;entryY=0;entryDx=0;entryDy=0;" edge="1" parent="1" source="8tB_vOWRR-48YWNFsgm7-17" target="8tB_vOWRR-48YWNFsgm7-14">
          <mxGeometry relative="1" as="geometry">
            <mxPoint x="300" y="494.25" as="sourcePoint" />
            <mxPoint x="460" y="494.25" as="targetPoint" />
          </mxGeometry>
        </mxCell>
        <mxCell id="8tB_vOWRR-48YWNFsgm7-27" value="" style="endArrow=none;html=1;rounded=0;exitX=1;exitY=0;exitDx=0;exitDy=0;entryX=0.25;entryY=1;entryDx=0;entryDy=0;" edge="1" parent="1" source="8tB_vOWRR-48YWNFsgm7-20" target="8tB_vOWRR-48YWNFsgm7-14">
          <mxGeometry relative="1" as="geometry">
            <mxPoint x="65.08021264976787" y="499.99866361103204" as="sourcePoint" />
            <mxPoint x="150" y="494.25" as="targetPoint" />
          </mxGeometry>
        </mxCell>
        <mxCell id="8tB_vOWRR-48YWNFsgm7-28" value="" style="endArrow=none;html=1;rounded=0;exitX=1;exitY=0.5;exitDx=0;exitDy=0;entryX=0;entryY=0.5;entryDx=0;entryDy=0;" edge="1" parent="1" source="8tB_vOWRR-48YWNFsgm7-19" target="8tB_vOWRR-48YWNFsgm7-14">
          <mxGeometry relative="1" as="geometry">
            <mxPoint x="300" y="494.25" as="sourcePoint" />
            <mxPoint x="80" y="464.25" as="targetPoint" />
          </mxGeometry>
        </mxCell>
        <mxCell id="8tB_vOWRR-48YWNFsgm7-29" value="" style="endArrow=none;html=1;rounded=0;exitX=1;exitY=0.5;exitDx=0;exitDy=0;entryX=0;entryY=0;entryDx=0;entryDy=0;" edge="1" parent="1" source="8tB_vOWRR-48YWNFsgm7-18" target="8tB_vOWRR-48YWNFsgm7-14">
          <mxGeometry relative="1" as="geometry">
            <mxPoint x="300" y="494.25" as="sourcePoint" />
            <mxPoint x="460" y="494.25" as="targetPoint" />
          </mxGeometry>
        </mxCell>
        <mxCell id="8tB_vOWRR-48YWNFsgm7-33" value="" style="edgeStyle=entityRelationEdgeStyle;fontSize=12;html=1;endArrow=ERoneToMany;startArrow=ERmandOne;rounded=0;entryX=1;entryY=0.5;entryDx=0;entryDy=0;exitX=0;exitY=0.5;exitDx=0;exitDy=0;" edge="1" parent="1" source="xJ0qbIGbx3bulTJz7SwR-70" target="xJ0qbIGbx3bulTJz7SwR-67">
          <mxGeometry width="100" height="100" relative="1" as="geometry">
            <mxPoint x="810" y="590" as="sourcePoint" />
            <mxPoint x="890" y="560" as="targetPoint" />
          </mxGeometry>
        </mxCell>
        <mxCell id="8tB_vOWRR-48YWNFsgm7-34" value="regno" style="ellipse;whiteSpace=wrap;html=1;align=center;" vertex="1" parent="1">
          <mxGeometry x="830" y="730" width="100" height="40" as="geometry" />
        </mxCell>
        <mxCell id="8tB_vOWRR-48YWNFsgm7-35" value="manufacname" style="ellipse;whiteSpace=wrap;html=1;align=center;" vertex="1" parent="1">
          <mxGeometry x="885" y="770" width="100" height="40" as="geometry" />
        </mxCell>
        <mxCell id="8tB_vOWRR-48YWNFsgm7-36" value="" style="endArrow=none;html=1;rounded=0;exitX=0.25;exitY=1;exitDx=0;exitDy=0;entryX=1;entryY=0;entryDx=0;entryDy=0;" edge="1" parent="1" source="xJ0qbIGbx3bulTJz7SwR-70" target="8tB_vOWRR-48YWNFsgm7-34">
          <mxGeometry relative="1" as="geometry">
            <mxPoint x="1150" y="580" as="sourcePoint" />
            <mxPoint x="1310" y="580" as="targetPoint" />
          </mxGeometry>
        </mxCell>
        <mxCell id="8tB_vOWRR-48YWNFsgm7-37" value="" style="endArrow=none;html=1;rounded=0;exitX=0.5;exitY=1;exitDx=0;exitDy=0;entryX=0.5;entryY=0;entryDx=0;entryDy=0;" edge="1" parent="1" source="xJ0qbIGbx3bulTJz7SwR-70" target="8tB_vOWRR-48YWNFsgm7-35">
          <mxGeometry relative="1" as="geometry">
            <mxPoint x="1150" y="580" as="sourcePoint" />
            <mxPoint x="1310" y="580" as="targetPoint" />
          </mxGeometry>
        </mxCell>
        <mxCell id="8tB_vOWRR-48YWNFsgm7-39" value="parkinglocation" style="ellipse;whiteSpace=wrap;html=1;align=center;" vertex="1" parent="1">
          <mxGeometry x="1210" y="580" width="100" height="40" as="geometry" />
        </mxCell>
        <mxCell id="8tB_vOWRR-48YWNFsgm7-40" value="imgurls" style="ellipse;whiteSpace=wrap;html=1;align=center;" vertex="1" parent="1">
          <mxGeometry x="1175" y="690" width="100" height="40" as="geometry" />
        </mxCell>
        <mxCell id="8tB_vOWRR-48YWNFsgm7-41" value="pdfreporturl" style="ellipse;whiteSpace=wrap;html=1;align=center;" vertex="1" parent="1">
          <mxGeometry x="1225" y="530" width="100" height="40" as="geometry" />
        </mxCell>
        <mxCell id="8tB_vOWRR-48YWNFsgm7-42" value="" style="endArrow=none;html=1;rounded=0;exitX=1;exitY=0;exitDx=0;exitDy=0;entryX=0;entryY=1;entryDx=0;entryDy=0;" edge="1" parent="1" source="xJ0qbIGbx3bulTJz7SwR-70" target="8tB_vOWRR-48YWNFsgm7-41">
          <mxGeometry relative="1" as="geometry">
            <mxPoint x="1150" y="580" as="sourcePoint" />
            <mxPoint x="1310" y="580" as="targetPoint" />
          </mxGeometry>
        </mxCell>
        <mxCell id="8tB_vOWRR-48YWNFsgm7-43" value="" style="endArrow=none;html=1;rounded=0;exitX=0.5;exitY=1;exitDx=0;exitDy=0;entryX=0;entryY=0;entryDx=0;entryDy=0;" edge="1" parent="1" source="NdrXdqOvJseDfAq-D-si-3" target="xJ0qbIGbx3bulTJz7SwR-70">
          <mxGeometry relative="1" as="geometry">
            <mxPoint x="1150" y="580" as="sourcePoint" />
            <mxPoint x="1310" y="580" as="targetPoint" />
          </mxGeometry>
        </mxCell>
        <mxCell id="8tB_vOWRR-48YWNFsgm7-44" value="" style="endArrow=none;html=1;rounded=0;entryX=0;entryY=0.5;entryDx=0;entryDy=0;exitX=1;exitY=0.25;exitDx=0;exitDy=0;" edge="1" parent="1" source="xJ0qbIGbx3bulTJz7SwR-70" target="8tB_vOWRR-48YWNFsgm7-39">
          <mxGeometry relative="1" as="geometry">
            <mxPoint x="1130" y="590" as="sourcePoint" />
            <mxPoint x="1310" y="580" as="targetPoint" />
          </mxGeometry>
        </mxCell>
        <mxCell id="8tB_vOWRR-48YWNFsgm7-45" value="" style="endArrow=none;html=1;rounded=0;exitX=1;exitY=1;exitDx=0;exitDy=0;entryX=0;entryY=0;entryDx=0;entryDy=0;" edge="1" parent="1" source="xJ0qbIGbx3bulTJz7SwR-70" target="8tB_vOWRR-48YWNFsgm7-40">
          <mxGeometry relative="1" as="geometry">
            <mxPoint x="1150" y="580" as="sourcePoint" />
            <mxPoint x="1310" y="580" as="targetPoint" />
          </mxGeometry>
        </mxCell>
        <mxCell id="8tB_vOWRR-48YWNFsgm7-46" value="host_auction" style="whiteSpace=wrap;html=1;align=center;" vertex="1" parent="1">
          <mxGeometry x="1330" y="620" width="100" height="40" as="geometry" />
        </mxCell>
        <mxCell id="8tB_vOWRR-48YWNFsgm7-47" value="" style="edgeStyle=entityRelationEdgeStyle;fontSize=12;html=1;endArrow=ERoneToMany;startArrow=ERmandOne;rounded=0;entryX=0;entryY=0.5;entryDx=0;entryDy=0;exitX=1;exitY=0.5;exitDx=0;exitDy=0;" edge="1" parent="1" source="xJ0qbIGbx3bulTJz7SwR-70" target="8tB_vOWRR-48YWNFsgm7-46">
          <mxGeometry width="100" height="100" relative="1" as="geometry">
            <mxPoint x="1290" y="610" as="sourcePoint" />
            <mxPoint x="1390" y="510" as="targetPoint" />
          </mxGeometry>
        </mxCell>
        <mxCell id="8tB_vOWRR-48YWNFsgm7-48" value="vehicleid" style="ellipse;whiteSpace=wrap;html=1;align=center;" vertex="1" parent="1">
          <mxGeometry x="1450" y="500" width="100" height="40" as="geometry" />
        </mxCell>
        <mxCell id="8tB_vOWRR-48YWNFsgm7-49" value="base_price" style="ellipse;whiteSpace=wrap;html=1;align=center;" vertex="1" parent="1">
          <mxGeometry x="1010" y="770" width="100" height="40" as="geometry" />
        </mxCell>
        <mxCell id="8tB_vOWRR-48YWNFsgm7-50" value="auction_start" style="ellipse;whiteSpace=wrap;html=1;align=center;" vertex="1" parent="1">
          <mxGeometry x="1440" y="690" width="100" height="40" as="geometry" />
        </mxCell>
        <mxCell id="8tB_vOWRR-48YWNFsgm7-51" value="auction_end" style="ellipse;whiteSpace=wrap;html=1;align=center;" vertex="1" parent="1">
          <mxGeometry x="1540" y="640" width="100" height="40" as="geometry" />
        </mxCell>
        <mxCell id="8tB_vOWRR-48YWNFsgm7-52" value="removeSchedule" style="ellipse;whiteSpace=wrap;html=1;align=center;" vertex="1" parent="1">
          <mxGeometry x="1520" y="590" width="100" height="40" as="geometry" />
        </mxCell>
        <mxCell id="8tB_vOWRR-48YWNFsgm7-53" value="startAuction" style="ellipse;whiteSpace=wrap;html=1;align=center;" vertex="1" parent="1">
          <mxGeometry x="1500" y="540" width="100" height="40" as="geometry" />
        </mxCell>
        <mxCell id="8tB_vOWRR-48YWNFsgm7-54" value="auctionid" style="ellipse;whiteSpace=wrap;html=1;align=center;fontStyle=4;" vertex="1" parent="1">
          <mxGeometry x="1360" y="520" width="100" height="40" as="geometry" />
        </mxCell>
        <mxCell id="8tB_vOWRR-48YWNFsgm7-56" value="" style="endArrow=none;html=1;rounded=0;exitX=0.5;exitY=1;exitDx=0;exitDy=0;entryX=0.25;entryY=0;entryDx=0;entryDy=0;" edge="1" parent="1" source="8tB_vOWRR-48YWNFsgm7-54" target="8tB_vOWRR-48YWNFsgm7-46">
          <mxGeometry relative="1" as="geometry">
            <mxPoint x="1260" y="600" as="sourcePoint" />
            <mxPoint x="1420" y="600" as="targetPoint" />
          </mxGeometry>
        </mxCell>
        <mxCell id="8tB_vOWRR-48YWNFsgm7-57" value="" style="endArrow=none;html=1;rounded=0;entryX=0.5;entryY=1;entryDx=0;entryDy=0;exitX=0.5;exitY=0;exitDx=0;exitDy=0;" edge="1" parent="1" source="8tB_vOWRR-48YWNFsgm7-46" target="8tB_vOWRR-48YWNFsgm7-48">
          <mxGeometry relative="1" as="geometry">
            <mxPoint x="1260" y="600" as="sourcePoint" />
            <mxPoint x="1420" y="600" as="targetPoint" />
          </mxGeometry>
        </mxCell>
        <mxCell id="8tB_vOWRR-48YWNFsgm7-58" value="" style="endArrow=none;html=1;rounded=0;exitX=0;exitY=1;exitDx=0;exitDy=0;entryX=0.75;entryY=0;entryDx=0;entryDy=0;" edge="1" parent="1" source="8tB_vOWRR-48YWNFsgm7-53" target="8tB_vOWRR-48YWNFsgm7-46">
          <mxGeometry relative="1" as="geometry">
            <mxPoint x="1260" y="600" as="sourcePoint" />
            <mxPoint x="1420" y="600" as="targetPoint" />
          </mxGeometry>
        </mxCell>
        <mxCell id="8tB_vOWRR-48YWNFsgm7-59" value="" style="endArrow=none;html=1;rounded=0;entryX=0;entryY=0.5;entryDx=0;entryDy=0;exitX=1;exitY=0.25;exitDx=0;exitDy=0;" edge="1" parent="1" source="8tB_vOWRR-48YWNFsgm7-46" target="8tB_vOWRR-48YWNFsgm7-52">
          <mxGeometry relative="1" as="geometry">
            <mxPoint x="1260" y="600" as="sourcePoint" />
            <mxPoint x="1420" y="600" as="targetPoint" />
          </mxGeometry>
        </mxCell>
        <mxCell id="8tB_vOWRR-48YWNFsgm7-60" value="" style="endArrow=none;html=1;rounded=0;entryX=0;entryY=0.5;entryDx=0;entryDy=0;exitX=1;exitY=0.5;exitDx=0;exitDy=0;" edge="1" parent="1" source="8tB_vOWRR-48YWNFsgm7-46" target="8tB_vOWRR-48YWNFsgm7-51">
          <mxGeometry relative="1" as="geometry">
            <mxPoint x="1260" y="600" as="sourcePoint" />
            <mxPoint x="1420" y="600" as="targetPoint" />
          </mxGeometry>
        </mxCell>
        <mxCell id="8tB_vOWRR-48YWNFsgm7-61" value="" style="endArrow=none;html=1;rounded=0;entryX=0;entryY=0;entryDx=0;entryDy=0;exitX=1;exitY=1;exitDx=0;exitDy=0;" edge="1" parent="1" source="8tB_vOWRR-48YWNFsgm7-46" target="8tB_vOWRR-48YWNFsgm7-50">
          <mxGeometry relative="1" as="geometry">
            <mxPoint x="1260" y="750" as="sourcePoint" />
            <mxPoint x="1420" y="750" as="targetPoint" />
          </mxGeometry>
        </mxCell>
        <mxCell id="8tB_vOWRR-48YWNFsgm7-63" value="" style="endArrow=none;html=1;rounded=0;exitX=0.75;exitY=1;exitDx=0;exitDy=0;entryX=0.5;entryY=0;entryDx=0;entryDy=0;" edge="1" parent="1" source="xJ0qbIGbx3bulTJz7SwR-70" target="8tB_vOWRR-48YWNFsgm7-49">
          <mxGeometry relative="1" as="geometry">
            <mxPoint x="500" y="490" as="sourcePoint" />
            <mxPoint x="660" y="490" as="targetPoint" />
          </mxGeometry>
        </mxCell>
      </root>
    </mxGraphModel>
  </diagram>
</mxfile>
